#!OML:ASF F:\twosubjects\two\Thursday\Session 1\justin.ASF
:FULLY-SPECIFIED
:DEGREES
320
root 6.64331 17.4508 -6.96257 20.4763 -1.57353 1.06984
lowerback 22.034 0.292581 -0.684711
upperback 4.64951 0.380317 1.87539
thorax -7.2326 0.206477 2.32443
lowerneck -17.3755 -4.05135 -10.1195
upperneck 13.8017 -4.38905 8.08253
head 7.50393 -1.89086 3.81759
rclavicle -7.55382e-015 -1.59028e-015
rhumerus -5.51396 40.9147 -82.4168
rradius 40.3723
rwrist 16.6591
rhand -54.1997 40.0314
rfingers 7.12502
rthumb -26.6144 11.8819
lclavicle -7.55382e-015 -1.59028e-015
lhumerus -5.49915 -40.088 89.2666
lradius 37.3637
lwrist -31.22
lhand -25.2426 61.9529
lfingers 7.12502
lthumb 1.27726 268.071
rfemur -35.8451 -4.42368 2.74252
rtibia 30.9591
rfoot -12.4987 -10.3296
rtoes -26.7294
lfemur -28.0067 4.07492 -4.54183
ltibia 17.8814
lfoot -8.43766 1.91633
ltoes -27.6877
321
root 6.64858 17.4525 -6.9684 20.3862 -1.64244 1.01075
lowerback 21.9691 0.233804 -0.847716
upperback 4.79735 0.274285 1.9782
thorax -7.03302 0.15621 2.55743
lowerneck -17.6672 -3.93341 -10.0514
upperneck 14.0261 -4.20955 7.98292
head 7.60628 -1.80577 3.7958
rclavicle -1.98785e-015 9.14409e-015
rhumerus -5.17728 41.1829 -82.2157
rradius 40.4054
rwrist 16.8569
rhand -53.9861 40.23
rfingers 7.12502
rthumb -26.41 12.0496
lclavicle -1.98785e-015 9.14409e-015
lhumerus -5.20085 -39.5273 89.0587
lradius 37.2565
lwrist -31.6547
lhand -25.101 62.0196
lfingers 7.12502
lthumb 1.41402 268.005
rfemur -35.7365 -4.38226 2.76595
rtibia 30.8441
rfoot -12.7281 -10.2014
rtoes -25.7887
lfemur -28.0018 4.17296 -4.54002
ltibia 18.0114
lfoot -8.71635 1.84496
ltoes -27.2587
322
root 6.65529 17.4478 -6.97823 20.3703 -1.70597 1.29599
lowerback 21.9369 0.166489 -1.17234
upperback 4.8637 0.110877 1.93129
thorax -6.93523 0.0816231 2.7364
lowerneck -17.9895 -3.88605 -10.2481
upperneck 14.3106 -4.12579 8.25258
head 7.75787 -1.74598 3.93245
rclavicle 1.59028e-015 -1.47101e-014
rhumerus -4.97222 41.4462 -82.138
rradius 40.5204
rwrist 16.7605
rhand -53.7956 39.9473
rfingers 7.12502
rthumb -26.2276 11.7397
lclavicle 1.59028e-015 -1.47101e-014
lhumerus -5.05449 -39.7713 88.8155
lradius 37.276
lwrist -31.035
lhand -25.3135 62.4567
lfingers 7.12502
lthumb 1.20878 267.567
rfemur -35.6909 -4.41793 2.38147
rtibia 30.7349
rfoot -12.7788 -10.1064
rtoes -24.9568
lfemur -28.0928 3.99208 -4.83735
ltibia 18.1458
lfoot -8.95401 1.88114
ltoes -26.1012
323
root 6.65795 17.4425 -6.9881 20.3367 -1.72936 1.45876
lowerback 21.9684 0.137181 -1.31852
upperback 4.89674 0.0358797 1.87708
thorax -6.9111 0.0472434 2.78176
lowerneck -18.1307 -3.89939 -10.3303
upperneck 14.4723 -4.14667 8.41376
head 7.84331 -1.74284 4.00012
rclavicle 7.95139e-015 -1.35174e-014
rhumerus -4.87723 41.5904 -82.0975
rradius 40.6477
rwrist 16.6109
rhand -53.5923 38.863
rfingers 7.12502
rthumb -26.033 10.6266
lclavicle 7.95139e-015 -1.35174e-014
lhumerus -4.87837 -39.9359 88.5725
lradius 37.2763
lwrist -30.9179
lhand -25.1316 62.1236
lfingers 7.12502
lthumb 1.38446 267.901
rfemur -35.6494 -4.32825 2.12304
rtibia 30.6968
rfoot -12.6997 -10.2113
rtoes -25.2925
lfemur -28.0781 3.87242 -4.99129
ltibia 18.179
lfoot -9.04529 1.86699
ltoes -24.4036
324
root 6.66249 17.4407 -6.99738 20.4034 -1.63285 1.45928
lowerback 21.8746 0.113594 -1.23319
upperback 4.90763 0.0275957 1.91025
thorax -6.84989 0.041335 2.76984
lowerneck -18.0582 -3.96897 -10.5854
upperneck 14.4207 -4.22871 8.67664
head 7.83402 -1.77246 4.12138
rclavicle 2.78299e-015 3.97569e-015
rhumerus -4.76629 41.5824 -81.9107
rradius 40.7193
rwrist 16.5454
rhand -53.4339 38.2318
rfingers 7.12502
rthumb -25.8813 9.97321
lclavicle 2.78299e-015 3.97569e-015
lhumerus -4.76066 -40.1365 88.5588
lradius 37.2873
lwrist -30.707
lhand -25.2133 62.0192
lfingers 7.12502
lthumb 1.30553 268.005
rfemur -35.6911 -4.38417 2.12227
rtibia 30.7383
rfoot -12.6704 -10.2165
rtoes -26.6761
lfemur -28.1979 3.87136 -4.99374
ltibia 18.1586
lfoot -9.12455 1.78588
ltoes -24.1323
325
root 6.67015 17.4373 -7.00822 20.5244 -1.58146 1.5431
lowerback 21.8056 0.120362 -1.19876
upperback 4.85455 0.0459192 1.9218
thorax -6.87289 0.050582 2.75739
lowerneck -17.8259 -3.94417 -10.529
upperneck 14.1776 -4.20456 8.59031
head 7.70784 -1.77012 4.08301
rclavicle -1.19271e-015 -1.31198e-014
rhumerus -4.84538 41.4945 -81.7589
rradius 40.8787
rwrist 16.4849
rhand -53.5643 38.2418
rfingers 7.12502
rthumb -26.0062 10.0015
lclavicle -1.19271e-015 -1.31198e-014
lhumerus -4.76805 -40.2748 88.6477
lradius 37.3869
lwrist -30.4477
lhand -25.3495 62.0637
lfingers 7.12502
lthumb 1.17401 267.96
rfemur -35.8151 -4.56672 2.04422
rtibia 30.7888
rfoot -12.7748 -9.90917
rtoes -27.7553
lfemur -28.4314 4.02133 -5.15379
ltibia 18.2187
lfoot -9.22507 1.69023
ltoes -25.1041
326
root 6.67588 17.4325 -7.01634 20.4977 -1.70929 1.58447
lowerback 21.8441 0.165567 -1.20834
upperback 4.88783 0.0967221 1.86554
thorax -6.85953 0.0741426 2.68799
lowerneck -17.7013 -3.84738 -10.2395
upperneck 14.0042 -4.10659 8.3489
head 7.6073 -1.73218 3.96339
rclavicle 1.19271e-015 1.98785e-015
rhumerus -4.89127 41.1509 -81.7591
rradius 41.0052
rwrist 16.7765
rhand -53.6448 38.5292
rfingers 7.12502
rthumb -26.0833 10.3002
lclavicle 1.19271e-015 1.98785e-015
lhumerus -4.68919 -40.5364 88.4572
lradius 37.6133
lwrist -30.0314
lhand -25.5476 62.3219
lfingers 7.12502
lthumb 0.982656 267.701
rfemur -35.8724 -4.53297 1.94466
rtibia 30.832
rfoot -12.8801 -9.767
rtoes -27.1454
lfemur -28.4741 4.25733 -5.29353
ltibia 18.3561
lfoot -9.35216 1.63306
ltoes -25.9636
327
root 6.67945 17.4281 -7.02115 20.45 -1.87363 1.59465
lowerback 21.7825 0.228341 -1.24647
upperback 5.00404 0.166712 1.85106
thorax -6.70451 0.105039 2.67346
lowerneck -17.7586 -3.88405 -10.3835
upperneck 13.9686 -4.11891 8.38714
head 7.61071 -1.74098 3.99783
rclavicle -1.43125e-014 1.11319e-014
rhumerus -4.75954 40.6818 -81.6788
rradius 41.0551
rwrist 17.2715
rhand -53.4338 38.4062
rfingers 7.12502
rthumb -25.8812 10.1475
lclavicle -1.43125e-014 1.11319e-014
lhumerus -4.63548 -40.7591 88.414
lradius 37.8584
lwrist -29.5842
lhand -25.6819 62.2612
lfingers 7.12502
lthumb 0.852979 267.761
rfemur -35.9355 -4.35471 1.82459
rtibia 30.9023
rfoot -12.9126 -9.82689
rtoes -25.7264
lfemur -28.4779 4.40149 -5.36295
ltibia 18.5172
lfoot -9.53992 1.48389
ltoes -26.1973
328
root 6.68039 17.4238 -7.0284 20.4212 -1.95871 1.66443
lowerback 21.7626 0.234501 -1.40024
upperback 5.04346 0.139658 1.83924
thorax -6.6496 0.093135 2.75556
lowerneck -17.8969 -3.90401 -10.5271
upperneck 14.11 -4.12359 8.50488
head 7.68738 -1.73773 4.0624
rclavicle 2.38542e-015 7.55382e-015
rhumerus -4.73061 40.5426 -81.7046
rradius 41.1439
rwrist 17.4994
rhand -53.2805 38.0318
rfingers 7.12502
rthumb -25.7344 9.75182
lclavicle 2.38542e-015 7.55382e-015
lhumerus -4.75636 -40.4381 88.5501
lradius 37.8895
lwrist -29.6857
lhand -25.2135 60.7602
lfingers 7.12502
lthumb 1.30535 269.264
rfemur -36.0128 -4.24178 1.65915
rtibia 30.995
rfoot -13.0126 -9.68961
rtoes -25.5705
lfemur -28.5449 4.4941 -5.477
ltibia 18.6819
lfoot -9.67905 1.29352
ltoes -26.0166
329
root 6.67961 17.4185 -7.03862 20.4899 -1.98364 1.79238
lowerback 21.7069 0.146956 -1.64207
upperback 4.95678 -0.0317303 1.75423
thorax -6.70439 0.0158169 2.84815
lowerneck -17.6995 -3.74889 -10.3834
upperneck 14.1822 -3.98938 8.59438
head 7.66222 -1.66221 4.0878
rclavicle 5.1684e-015 1.74931e-014
rhumerus -4.86471 40.6137 -82.0911
rradius 41.1432
rwrist 17.6484
rhand -53.375 38.2631
rfingers 7.12502
rthumb -25.8249 9.99623
lclavicle 5.1684e-015 1.74931e-014
lhumerus -4.98423 -39.7804 88.5129
lradius 37.7939
lwrist -30.1745
lhand -25.2876 61.1156
lfingers 7.12502
lthumb 1.23377 268.908
rfemur -36.1854 -4.23847 1.4809
rtibia 31.0925
rfoot -12.9124 -9.63429
rtoes -26.4092
lfemur -28.755 4.5502 -5.62541
ltibia 18.8412
lfoot -9.77415 1.2078
ltoes -25.8739
330
root 6.68197 17.4109 -7.04812 20.552 -1.96423 1.7555
lowerback 21.6558 0.0742653 -1.62796
upperback 4.89288 -0.124149 1.72307
thorax -6.74186 -0.0276596 2.831
lowerneck -17.4284 -3.60192 -9.95041
upperneck 14.098 -3.85242 8.2155
head 7.55683 -1.61391 3.90406
rclavicle -5.56597e-015 -1.35174e-014
rhumerus -5.01391 40.5716 -82.372
rradius 41.1513
rwrist 17.939
rhand -53.5195 38.3155
rfingers 7.12502
rthumb -25.9633 10.0689
lclavicle -5.56597e-015 -1.35174e-014
lhumerus -5.10669 -39.1962 88.469
lradius 37.7831
lwrist -30.7938
lhand -24.9088 60.564
lfingers 7.12502
lthumb 1.59968 269.462
rfemur -36.3292 -4.19885 1.48145
rtibia 31.1815
rfoot -12.7792 -9.7042
rtoes -26.587
lfemur -28.9247 4.52914 -5.53691
ltibia 18.9799
lfoot -9.92786 1.15027
ltoes -25.6389
331
root 6.68837 17.4051 -7.05704 20.4614 -1.94245 1.58894
lowerback 21.727 0.0884531 -1.3715
upperback 4.98884 -0.0472322 1.77334
thorax -6.67986 0.0036297 2.71776
lowerneck -17.7243 -3.63487 -9.69724
upperneck 14.1804 -3.87088 7.84937
head 7.62371 -1.63717 3.73582
rclavicle 7.95139e-015 6.36111e-015
rhumerus -4.82755 40.5194 -82.1087
rradius 41.1867
rwrist 18.0543
rhand -53.6687 38.1145
rfingers 7.12502
rthumb -26.1062 9.88884
lclavicle 7.95139e-015 6.36111e-015
lhumerus -4.9048 -39.1865 88.4318
lradius 37.8347
lwrist -30.9584
lhand -25.0303 60.7241
lfingers 7.12502
lthumb 1.48228 269.301
rfemur -36.2975 -4.13634 1.63127
rtibia 31.2425
rfoot -12.9099 -9.61317
rtoes -25.8715
lfemur -28.8977 4.49663 -5.31448
ltibia 19.1102
lfoot -10.0564 1.09507
ltoes -25.5908
332
root 6.69282 17.4021 -7.06428 20.3478 -1.89863 1.47374
lowerback 21.7546 0.0677721 -1.22561
upperback 4.99034 -0.0402676 1.79815
thorax -6.69341 0.00502593 2.65951
lowerneck -17.2921 -3.55278 -9.71068
upperneck 14.0297 -3.80072 7.9142
head 7.49481 -1.60655 3.76841
rclavicle -3.18055e-015 -1.51076e-014
rhumerus -4.82936 40.5832 -82.118
rradius 41.1278
rwrist 18.0098
rhand -53.6745 38.2553
rfingers 7.12502
rthumb -26.1117 10.0306
lclavicle -3.18055e-015 -1.51076e-014
lhumerus -5.01765 -39.5633 88.4283
lradius 37.8765
lwrist -30.5675
lhand -25.4965 61.3368
lfingers 7.12502
lthumb 1.03207 268.686
rfemur -36.1749 -4.06758 1.71507
rtibia 31.2355
rfoot -13.1243 -9.4705
rtoes -25.1167
lfemur -28.8683 4.48759 -5.17611
ltibia 19.2576
lfoot -10.0673 1.03853
ltoes -25.3902
333
root 6.69315 17.403 -7.0695 20.3022 -1.78433 1.33486
lowerback 21.7747 0.00817702 -1.07982
upperback 4.8755 -0.0784785 1.86651
thorax -6.82736 -0.0124803 2.66204
lowerneck -16.7337 -3.47549 -9.71224
upperneck 14.0406 -3.72916 7.81311
head 7.3935 -1.59295 3.74553
rclavicle -1.98785e-015 -3.26007e-014
rhumerus -5.1469 40.4864 -82.3349
rradius 41.1479
rwrist 18.2404
rhand -53.3123 38.2571
rfingers 7.12502
rthumb -25.7649 9.98156
lclavicle -1.98785e-015 -3.26007e-014
lhumerus -5.35507 -39.6979 88.5906
lradius 37.9197
lwrist -30.4004
lhand -25.2477 60.9221
lfingers 7.12502
lthumb 1.27237 269.102
rfemur -36.0604 -3.95291 1.80687
rtibia 31.1679
rfoot -13.2175 -9.53589
rtoes -24.7705
lfemur -28.9561 4.49519 -5.0074
ltibia 19.4231
lfoot -10.0982 0.943722
ltoes -24.9753
334
root 6.69217 17.4045 -7.07385 20.2408 -1.65471 1.10774
lowerback 21.8116 -0.00986706 -0.780168
upperback 5.0287 -0.0267551 2.0036
thorax -6.68287 0.00537569 2.62401
lowerneck -17.4399 -3.66127 -9.8977
upperneck 14.3502 -3.85568 7.66554
head 7.62963 -1.66463 3.71166
rclavicle 3.57812e-015 -2.26615e-014
rhumerus -4.79889 40.0827 -81.9194
rradius 41.2145
rwrist 18.9428
rhand -53.0426 37.8191
rfingers 7.12502
rthumb -25.5065 9.50628
lclavicle 3.57812e-015 -2.26615e-014
lhumerus -5.03578 -39.3453 88.7002
lradius 37.8928
lwrist -30.7094
lhand -25.147 60.4713
lfingers 7.12502
lthumb 1.36962 269.553
rfemur -35.9397 -3.70634 1.96566
rtibia 31.0992
rfoot -13.1795 -9.92918
rtoes -24.253
lfemur -29.0289 4.58425 -4.76619
ltibia 19.5983
lfoot -10.2049 0.756843
ltoes -25.1106
